<?xml version="1.0" encoding="UTF-8" standalone="no"?>
<svg width="488px" height="450px" viewBox="0 0 488 450" version="1.1" xmlns="http://www.w3.org/2000/svg" xmlns:xlink="http://www.w3.org/1999/xlink">
    <!-- Generator: Sketch 3.6.1 (26313) - http://www.bohemiancoding.com/sketch -->
    <title>icon-previous-black</title>
    <desc>Created with Sketch.</desc>
    <defs></defs>
    <g id="Page-1" stroke="none" stroke-width="1" fill="none" fill-rule="evenodd">
        <g id="icon-previous-black" transform="translate(244.000000, 225.000000) rotate(-180.000000) translate(-244.000000, -225.000000) translate(0.000000, 0.000000)" fill="#000000">
            <g id="Page-1">
                <g id="icon-next" transform="translate(244.000000, 225.000000) rotate(180.000000) translate(-244.000000, -225.000000) translate(0.000000, -0.000000)">
                    <g id="Group">
                        <g id="Shape">
                            <path d="M22.987,449.187 C10.291,449.187 0,438.896 0,426.202 L0,23.949 C0,11.254 10.291,0.961 22.987,0.961 L396.506,207.836 C396.506,207.836 413.745,225.074 396.506,242.313 C379.268,259.552 22.987,449.187 22.987,449.187 L22.987,449.187 L22.987,449.187 Z"></path>
                            <path d="M411.09,25.64 C411.09,11.88 422.245,0.725 436.005,0.725 L462.998,0.725 C476.758,0.725 487.913,11.88 487.913,25.64 L487.913,424.273 C487.913,438.033 476.758,449.188 462.998,449.188 L436.005,449.188 C422.245,449.188 411.09,438.033 411.09,424.273 L411.09,25.64 L411.09,25.64 L411.09,25.64 Z"></path>
                        </g>
                    </g>
                </g>
            </g>
        </g>
    </g>
</svg>