<?xml version="1.0" encoding="UTF-8" standalone="no"?>
<svg width="30px" height="30px" viewBox="0 0 30 30" version="1.1" xmlns="http://www.w3.org/2000/svg" xmlns:xlink="http://www.w3.org/1999/xlink">
    <!-- Generator: Sketch 3.6.1 (26313) - http://www.bohemiancoding.com/sketch -->
    <title>Shape</title>
    <desc>Created with Sketch.</desc>
    <defs></defs>
    <g id="Page-1" stroke="none" stroke-width="1" fill="none" fill-rule="evenodd">
        <g id="HOME" transform="translate(-1281.000000, -71.000000)" fill="#FEFEFE">
            <g id="search" transform="translate(1281.000000, 71.000000)">
                <g id="Group">
                    <g transform="translate(0.636364, 0.000000)" id="a-link">
                        <g>
                            <g id="a">
                                <path d="M29.3636364,28.1284404 C29.3640891,27.8086941 29.24818,27.5325473 29.0159091,27.3 L22.5443182,20.8458716 C23.8883907,19.2861239 24.7705877,17.5264908 25.1909091,15.5669725 L25.1909091,15.5477064 C25.3955108,14.6420011 25.4985411,13.6979644 25.5,12.7155963 C25.5004025,9.19768492 24.25116,6.19218033 21.7522727,3.69908257 C19.2787908,1.23322821 16.2780333,0.000200688073 12.75,0 C9.22282197,0.000652236239 6.20918561,1.23367976 3.70909091,3.69908257 C1.23701764,6.19243119 0.000654000947,9.19793578 0,12.7155963 C0.000201231061,16.2341098 1.23656487,19.2267704 3.70909091,21.693578 C6.20893407,24.1857225 9.22257043,25.431594 12.75,25.4311927 C15.8835198,25.4319452 18.600944,24.4493764 20.9022727,22.4834862 L27.3738636,28.9376147 C27.6070401,29.1692589 27.8839341,29.2848552 28.2045455,29.2844037 C28.5251065,29.2848552 28.7955611,29.1692589 29.0159091,28.9376147 C29.24818,28.7178612 29.3640891,28.4481365 29.3636364,28.1284404 L29.3636364,28.1284404 Z M20.1102273,5.33669725 C22.1575018,7.37749427 23.1813654,9.83712729 23.1818182,12.7155963 C23.1832771,13.5313933 23.099565,14.3148796 22.9306818,15.066055 C22.5152403,16.9496631 21.5815282,18.6065439 20.1295455,20.0366972 L20.0909091,20.0752294 C18.0723603,22.1037342 15.6253906,23.1184131 12.75,23.1192661 C9.8637429,23.1188145 7.39745502,22.0977136 5.35113636,20.0559633 C3.32896544,18.0402021 2.31798059,15.5934131 2.31818182,12.7155963 C2.31752782,9.83692661 3.32851267,7.37729358 5.35113636,5.33669725 C7.39725379,3.31953125 9.86354167,2.31127437 12.75,2.31192661 C15.6356031,2.31172592 18.0890122,3.3199828 20.1102273,5.33669725 L20.1102273,5.33669725 Z" id="Shape"></path>
                            </g>
                        </g>
                    </g>
                </g>
            </g>
        </g>
    </g>
</svg>