<?xml version="1.0" encoding="UTF-8" standalone="no"?>
<svg width="39px" height="26px" viewBox="0 0 39 26" version="1.1" xmlns="http://www.w3.org/2000/svg" xmlns:xlink="http://www.w3.org/1999/xlink">
    <!-- Generator: Sketch 3.6.1 (26313) - http://www.bohemiancoding.com/sketch -->
    <title>Group 8</title>
    <desc>Created with Sketch.</desc>
    <defs></defs>
    <g id="Page-1" stroke="none" stroke-width="1" fill="none" fill-rule="evenodd">
        <g id="HOME" transform="translate(-881.000000, -616.000000)">
            <g id="Group-6" transform="translate(591.000000, 616.000000)">
                <g id="noun_156706_cc" transform="translate(290.000000, 0.000000)">
                    <g id="Group">
                        <g id="Group-8">
                            <g>
                                <path d="M13.3077176,1.05322807 C6.67221176,1.05322807 1.27323529,6.42154386 1.27323529,13.0191579 C1.27323529,19.6176842 6.67175294,24.9850877 13.3077176,24.9850877 C19.9464353,24.9850877 25.3495412,19.6172281 25.3495412,13.0191579 C25.3490824,6.42108772 19.9464353,1.05322807 13.3077176,1.05322807 L13.3077176,1.05322807 Z M1.99909412,13.0342105 C1.99909412,11.6224561 3.15303529,10.474807 4.57125882,10.474807 C5.99131765,10.474807 7.14617647,11.6238246 7.14617647,13.0342105 C7.14617647,14.4445965 5.99131765,15.5922456 4.57125882,15.5922456 C3.15303529,15.5931579 1.99909412,14.4450526 1.99909412,13.0342105 L1.99909412,13.0342105 Z M7.06588235,21.5968772 C5.64765882,21.5968772 4.49371765,20.4487719 4.49371765,19.038386 C4.49371765,17.6266316 5.64765882,16.4798947 7.06588235,16.4798947 C8.48594118,16.4798947 9.64034118,17.6270877 9.64034118,19.038386 C9.64125882,20.4474035 8.4864,21.5968772 7.06588235,21.5968772 L7.06588235,21.5968772 Z M7.19802353,9.464 C5.7798,9.464 4.62494118,8.3154386 4.62494118,6.90505263 C4.62494118,5.49466667 5.7798,4.34701754 7.19802353,4.34701754 C8.61808235,4.34701754 9.77294118,5.49512281 9.77294118,6.90505263 C9.77385882,8.3154386 8.619,9.464 7.19802353,9.464 L7.19802353,9.464 Z M13.3104706,24.2803509 C11.8913294,24.2803509 10.7373882,23.1317895 10.7373882,21.7214035 C10.7373882,20.3110175 11.8913294,19.1629123 13.3104706,19.1629123 C14.7296118,19.1629123 15.8844706,20.3110175 15.8844706,21.7214035 C15.8853882,23.1322456 14.7300706,24.2803509 13.3104706,24.2803509 L13.3104706,24.2803509 Z M11.3503765,13.1455088 C11.3503765,12.070386 12.2304,11.1968772 13.3118471,11.1968772 C14.3923765,11.1968772 15.2714824,12.070386 15.2714824,13.1455088 C15.2714824,14.2201754 14.3919176,15.0941404 13.3118471,15.0941404 C12.2304,15.0945965 11.3503765,14.2206316 11.3503765,13.1455088 L11.3503765,13.1455088 Z M13.3104706,7.16824561 C11.8913294,7.16824561 10.7373882,6.02014035 10.7373882,4.61021053 C10.7373882,3.19891228 11.8913294,2.05080702 13.3104706,2.05080702 C14.7296118,2.05080702 15.8844706,3.19936842 15.8844706,4.61021053 C15.8853882,6.02014035 14.7300706,7.16824561 13.3104706,7.16824561 L13.3104706,7.16824561 Z M19.2701294,21.7273333 C17.8509882,21.7273333 16.6961294,20.5792281 16.6961294,19.168386 C16.6961294,17.7575439 17.8509882,16.610807 19.2701294,16.610807 C20.6892706,16.610807 21.8436706,17.758 21.8436706,19.168386 C21.8445882,20.5792281 20.6901882,21.7273333 19.2701294,21.7273333 L19.2701294,21.7273333 Z M24.5245765,13.0342105 C24.5245765,14.4450526 23.3692588,15.5922456 21.9501176,15.5922456 C20.5314353,15.5922456 19.3779529,14.4445965 19.3779529,13.0342105 C19.3779529,11.6224561 20.5318941,10.474807 21.9501176,10.474807 C23.3697176,10.474807 24.5245765,11.6224561 24.5245765,13.0342105 L24.5245765,13.0342105 Z M19.4008941,9.59582456 C17.9826706,9.59582456 16.8287294,8.4477193 16.8287294,7.03733333 C16.8287294,5.62603509 17.9826706,4.47838596 19.4008941,4.47838596 C20.8209529,4.47838596 21.9748941,5.62649123 21.9748941,7.03733333 C21.9762706,8.44817544 20.8218706,9.59582456 19.4008941,9.59582456 L19.4008941,9.59582456 Z" id="Shape"></path>
                                <path d="M26.3428941,15.0690526 C27.3018353,20.5646316 32.0414824,24.7871228 37.791,24.9782456 L37.791,22.0876842 C32.9178353,21.9398947 28.4892706,19.1446667 26.3428941,15.0690526 L26.3428941,15.0690526 Z M34.4737059,21.9417193 C36.0240706,22.5150877 37.1711294,22.5301404 37.2509647,22.5301404 L37.2537176,22.5301404 L37.2830824,24.5622456 L37.2528,24.5622456 C37.0316471,24.5622456 35.9469882,24.5353333 34.4746235,24.0969825 L34.4746235,21.9412632 L34.4737059,21.9412632 L34.4737059,21.9417193 Z M31.5776118,20.6914386 C32.3626588,21.2077895 33.0784235,21.4796491 33.7418824,21.6981404 L33.7418824,23.8055088 C33.0995294,23.5628421 32.2874118,23.0209474 31.5776118,22.5981053 L31.5776118,20.6914386 L31.5776118,20.6914386 Z M29.2096235,19.1081754 C30.0144,19.7677544 30.9641647,20.3908421 30.9641647,20.3908421 L30.9641647,22.0685263 C30.3800824,21.6748772 29.7900353,21.0070877 29.2096235,20.4547018 C29.2096235,20.4547018 29.2096235,19.2349825 29.2096235,19.1081754 L29.2096235,19.1081754 Z" id="Shape"></path>
                                <path d="M26.1529412,12.3454386 L26.1322941,12.3504561 C25.779,5.61554386 20.1703412,0.239929825 13.3072588,0.239929825 C6.22118824,0.239929825 0.455152941,5.97270175 0.455152941,13.0191579 C0.455152941,20.065614 6.22164706,25.798386 13.3077176,25.798386 C19.3068353,25.798386 24.3428824,21.6899298 25.7578941,16.1601404 C27.1710706,21.6908421 32.2057412,25.798386 38.1998118,25.798386 L38.6095412,25.798386 L38.6095412,21.2812281 L38.1998118,21.2812281 C32.5792235,21.2816842 27.5115176,17.5230877 26.1529412,12.3454386 L26.1529412,12.3454386 Z M13.3077176,24.9850877 C6.67221176,24.9850877 1.27323529,19.6172281 1.27323529,13.0191579 C1.27323529,6.42108772 6.67175294,1.05322807 13.3077176,1.05322807 C19.9464353,1.05322807 25.3495412,6.42154386 25.3495412,13.0191579 C25.3490824,19.6176842 19.9464353,24.9850877 13.3077176,24.9850877 L13.3077176,24.9850877 Z M37.791,24.9791579 C32.0414824,24.7884912 27.3018353,20.5646316 26.3428941,15.0699649 C28.4892706,19.1451228 32.9178353,21.9398947 37.791,22.0895088 L37.791,24.9791579 L37.791,24.9791579 Z" id="Shape" fill="#FEFEFE"></path>
                                <path d="M19.4008941,4.47701754 C17.9826706,4.47701754 16.8287294,5.62512281 16.8287294,7.03596491 C16.8287294,8.44680702 17.9826706,9.59445614 19.4008941,9.59445614 C20.8209529,9.59445614 21.9748941,8.44635088 21.9748941,7.03596491 C21.9762706,5.62603509 20.8218706,4.47701754 19.4008941,4.47701754 L19.4008941,4.47701754 Z" id="Shape" fill="#FFFFFF"></path>
                                <path d="M7.14709412,13.0342105 C7.14709412,11.6224561 5.99223529,10.474807 4.57263529,10.474807 C3.15441176,10.474807 2.00047059,11.6238246 2.00047059,13.0342105 C2.00047059,14.4445965 3.15441176,15.5922456 4.57263529,15.5922456 C5.99223529,15.5931579 7.14709412,14.4450526 7.14709412,13.0342105 L7.14709412,13.0342105 Z" id="Shape" fill="#FFFFFF"></path>
                                <path d="M7.06588235,16.477614 C5.64765882,16.477614 4.49371765,17.6257193 4.49371765,19.0370175 C4.49371765,20.4474035 5.64765882,21.5950526 7.06588235,21.5950526 C8.48594118,21.5950526 9.64034118,20.4469474 9.64034118,19.0370175 C9.64125882,17.6257193 8.4864,16.477614 7.06588235,16.477614 L7.06588235,16.477614 Z" id="Shape" fill="#FFFFFF"></path>
                                <path d="M7.19802353,4.34610526 C5.7798,4.34610526 4.62494118,5.49421053 4.62494118,6.90414035 C4.62494118,8.3154386 5.7798,9.46263158 7.19802353,9.46263158 C8.61808235,9.46263158 9.77294118,8.31407018 9.77294118,6.90414035 C9.77385882,5.49375439 8.619,4.34610526 7.19802353,4.34610526 L7.19802353,4.34610526 Z" id="Shape" fill="#FFFFFF"></path>
                                <path d="M13.3104706,19.1610877 C11.8913294,19.1610877 10.7373882,20.3096491 10.7373882,21.7204912 C10.7373882,23.1313333 11.8913294,24.2785263 13.3104706,24.2785263 C14.7296118,24.2785263 15.8844706,23.1313333 15.8844706,21.7204912 C15.8853882,20.3105614 14.7300706,19.1610877 13.3104706,19.1610877 L13.3104706,19.1610877 Z" id="Shape" fill="#FFFFFF"></path>
                                <path d="M13.3104706,2.05035088 C11.8913294,2.05035088 10.7373882,3.19891228 10.7373882,4.60975439 C10.7373882,6.02014035 11.8913294,7.16778947 13.3104706,7.16778947 C14.7296118,7.16778947 15.8844706,6.01968421 15.8844706,4.60975439 C15.8853882,3.19891228 14.7300706,2.05035088 13.3104706,2.05035088 L13.3104706,2.05035088 Z" id="Shape" fill="#FFFFFF"></path>
                                <path d="M19.2701294,16.6094386 C17.8509882,16.6094386 16.6961294,17.7566316 16.6961294,19.1670175 C16.6961294,20.5792281 17.8509882,21.7259649 19.2701294,21.7259649 C20.6892706,21.7259649 21.8436706,20.5787719 21.8436706,19.1670175 C21.8445882,17.7566316 20.6901882,16.6094386 19.2701294,16.6094386 L19.2701294,16.6094386 Z" id="Shape" fill="#FFFFFF"></path>
                                <path d="M21.9492,15.5922456 C23.3697176,15.5922456 24.5236588,14.4445965 24.5236588,13.0342105 C24.5236588,11.6224561 23.3692588,10.474807 21.9492,10.474807 C20.5305176,10.474807 19.3770353,11.6224561 19.3770353,13.0342105 C19.3770353,14.4450526 20.5305176,15.5922456 21.9492,15.5922456 Z" id="Shape" fill="#FFFFFF"></path>
                                <path d="M13.3113882,15.0945965 C14.3919176,15.0945965 15.2710235,14.2206316 15.2710235,13.1459649 C15.2710235,12.0708421 14.3914588,11.1973333 13.3113882,11.1973333 C12.2299412,11.1973333 11.3499176,12.0708421 11.3499176,13.1459649 C11.3503765,14.2206316 12.2304,15.0945965 13.3113882,15.0945965 L13.3113882,15.0945965 Z M13.3113882,12.0097193 C13.9413529,12.0097193 14.4534,12.5183158 14.4534,13.1455088 C14.4534,13.7722456 13.9404353,14.2812982 13.3113882,14.2812982 C12.6805059,14.2812982 12.1675412,13.7722456 12.1675412,13.1455088 C12.168,12.5192281 12.6805059,12.0097193 13.3113882,12.0097193 L13.3113882,12.0097193 Z" id="Shape" fill="#FFFFFF"></path>
                                <path d="M30.9646235,22.0703509 L30.9646235,20.3917544 C30.9646235,20.3917544 30.0148588,19.7695789 29.2091647,19.1090877 L29.2091647,20.4551579 C29.7895765,21.008 30.3791647,21.6748772 30.9646235,22.0703509 L30.9646235,22.0703509 Z" id="Shape" fill="#FEFEFE"></path>
                                <path d="M33.7414235,21.6999649 C33.0784235,21.4796491 32.3612824,21.2087018 31.5771529,20.6923509 L31.5771529,22.5990175 C32.2869529,23.0232281 33.0986118,23.5642105 33.7414235,23.8064211 L33.7414235,21.6999649 L33.7414235,21.6999649 Z" id="Shape" fill="#FEFEFE"></path>
                                <path d="M37.2830824,24.5622456 L37.2546353,22.5301404 L37.2509647,22.5301404 C37.1711294,22.5301404 36.0249882,22.5150877 34.4737059,21.9417193 L34.4737059,24.0965263 C35.9469882,24.5348772 37.0311882,24.5622456 37.2518824,24.5622456 L37.2830824,24.5622456 L37.2830824,24.5622456 Z" id="Shape" fill="#FEFEFE"></path>
                            </g>
                        </g>
                    </g>
                </g>
            </g>
        </g>
    </g>
</svg>