<?xml version="1.0" encoding="utf-8"?>
<!-- Generator: Adobe Illustrator 16.0.0, SVG Export Plug-In . SVG Version: 6.00 Build 0)  -->
<!DOCTYPE svg PUBLIC "-//W3C//DTD SVG 1.1//EN" "http://www.w3.org/Graphics/SVG/1.1/DTD/svg11.dtd">
<svg version="1.1" id="Capa_1" xmlns="http://www.w3.org/2000/svg" xmlns:xlink="http://www.w3.org/1999/xlink" x="0px" y="0px"
	 width="512px" height="512px" viewBox="0 0 512 512" enable-background="new 0 0 512 512" xml:space="preserve">
<g>
	<g>
		<g>
			<path fill="#FFFFFF" d="M487.878,20.698C501.201,20.701,512,31.499,512,44.819v422.111
				c-0.001,13.323-10.799,24.122-24.122,24.122L95.92,273.966c0,0-18.091-18.088,0-36.179
				C114.009,219.696,487.878,20.698,487.878,20.698z"/>
			<path fill="#FFFFFF" d="M80.616,465.156c0,14.44-11.706,26.146-26.145,26.145H26.144c-14.438,0.001-26.145-11.705-26.145-26.145
				V46.844c0-14.44,11.707-26.143,26.146-26.145h28.326c14.438,0.001,26.144,11.706,26.146,26.145V465.156z"/>
		</g>
	</g>
</g>
</svg>
