<?xml version="1.0" encoding="utf-8"?>
<!-- Generator: Adobe Illustrator 16.0.0, SVG Export Plug-In . SVG Version: 6.00 Build 0)  -->
<!DOCTYPE svg PUBLIC "-//W3C//DTD SVG 1.1//EN" "http://www.w3.org/Graphics/SVG/1.1/DTD/svg11.dtd">
<svg version="1.1" id="Calque_1" xmlns:sketch="http://www.bohemiancoding.com/sketch/ns"
	 xmlns="http://www.w3.org/2000/svg" xmlns:xlink="http://www.w3.org/1999/xlink" x="0px" y="0px" width="3401.57px"
	 height="4535.43px" viewBox="0 0 3401.57 4535.43" enable-background="new 0 0 3401.57 4535.43" xml:space="preserve">
<title>Volume</title>
<desc>Created with Sketch.</desc>
<g sketch:type="MSPage">
	<g sketch:type="MSArtboardGroup">
		<path sketch:type="MSShapeGroup" fill="#FFFFFF" d="M1487.248,3024.549c162.799,140.207,294.705,87.135,294.705-118.466V781.215
			c0-205.884-131.944-258.641-294.705-118.467l-595.189,559.111H472.765c-167.339,0-302.686,124.835-302.686,278.826v684.783
			c0,154.009,135.517,278.827,302.686,278.827h417.968L1487.248,3024.549L1487.248,3024.549z M2235.096,988.672
			c-0.153,0-0.153-0.076-0.153-0.191s0-0.076-0.153-0.076c0,0,0-0.115-0.229-0.115c-68.69-68.499-179.714-68.499-248.405,0.191
			c-68.996,68.69-68.996,180.136,0,248.864c0.154,0.384,0.307,0.498,0.537,0.805c161.401,161.785,250.205,377.051,250.052,605.994
			c0.153,229.211-89.569,445.358-252.159,607.985c-68.69,68.844-68.69,180.174,0,248.941c68.69,68.767,180.098,68.767,248.787,0
			l0.959,0.957C2706.889,2229.66,2706.889,1461.001,2235.096,988.672L2235.096,988.672L2235.096,988.672z M2690.815,534.44
			c-69.254-69.254-181.651-69.254-250.905,0c-69.408,69.369-69.408,181.729,0,250.982
			c581.493,581.686,581.918,1528.412,1.197,2111.797c-0.965,0.889-1.97,1.507-2.703,2.279c-69.332,69.254-69.332,181.574,0,250.982
			c69.254,69.408,181.574,69.408,250.828,0l0.965,0.966C3411.627,2429.94,3412.014,1255.831,2690.815,534.44L2690.815,534.44
			L2690.815,534.44z"/>
	</g>
</g>
</svg>
