<?xml version="1.0" encoding="UTF-8" standalone="no"?>
<svg width="47px" height="66px" viewBox="0 0 47 66" version="1.1" xmlns="http://www.w3.org/2000/svg" xmlns:xlink="http://www.w3.org/1999/xlink">
    <!-- Generator: Sketch 3.6.1 (26313) - http://www.bohemiancoding.com/sketch -->
    <title>Group</title>
    <desc>Created with Sketch.</desc>
    <defs></defs>
    <g id="Page-1" stroke="none" stroke-width="1" fill="none" fill-rule="evenodd">
        <g id="Group" transform="translate(0.000000, -5.000000)" fill="#FFFFFF">
            <path d="M46.547,66.521 C46.547,68.16 45.6,69.649 44.118,70.344 C43.545,70.615 42.931,70.746 42.321,70.746 C41.355,70.746 40.398,70.414 39.625,69.773 L16.527,50.633 L4.225,50.633 C1.892,50.635 0,48.742 0,46.409 L0,29.576 C0,27.242 1.892,25.35 4.225,25.35 L16.528,25.35 L39.626,6.21 C40.888,5.164 42.638,4.941 44.119,5.641 C45.6,6.336 46.548,7.826 46.548,9.464 L46.547,66.521 L46.547,66.521 L46.547,66.521 Z" id="Shape"></path>
        </g>
    </g>
</svg>