<?xml version="1.0" encoding="UTF-8" standalone="no"?>
<svg width="94px" height="75px" viewBox="0 0 94 75" version="1.1" xmlns="http://www.w3.org/2000/svg" xmlns:xlink="http://www.w3.org/1999/xlink">
    <!-- Generator: Sketch 3.6.1 (26313) - http://www.bohemiancoding.com/sketch -->
    <title>Group</title>
    <desc>Created with Sketch.</desc>
    <defs></defs>
    <g id="Page-1" stroke="none" stroke-width="1" fill="none" fill-rule="evenodd">
        <g id="Group" fill="#FFFFFF">
            <path d="M46.547,66.521 C46.547,68.16 45.6,69.649 44.118,70.344 C43.545,70.615 42.931,70.746 42.321,70.746 C41.355,70.746 40.398,70.414 39.625,69.773 L16.527,50.633 L4.225,50.633 C1.892,50.635 0,48.742 0,46.409 L0,29.576 C0,27.242 1.892,25.35 4.225,25.35 L16.528,25.35 L39.626,6.21 C40.888,5.164 42.638,4.941 44.119,5.641 C45.6,6.336 46.548,7.826 46.548,9.464 L46.547,66.521 L46.547,66.521 L46.547,66.521 Z M62.784,59.919 C62.681,59.926 62.582,59.93 62.48,59.93 C61.364,59.93 60.288,59.489 59.493,58.693 L58.928,58.126 C57.446,56.647 57.272,54.304 58.52,52.622 C61.684,48.356 63.354,43.299 63.354,37.994 C63.354,32.288 61.458,26.936 57.87,22.516 C56.504,20.836 56.63,18.396 58.161,16.866 L58.725,16.301 C59.569,15.457 60.7,14.997 61.924,15.07 C63.116,15.13 64.229,15.691 64.985,16.615 C69.962,22.705 72.591,30.099 72.591,37.995 C72.591,45.349 70.266,52.349 65.866,58.235 C65.131,59.216 64.007,59.832 62.784,59.919 L62.784,59.919 Z M80.252,72.976 C79.488,73.879 78.383,74.421 77.2,74.471 C77.142,74.473 77.083,74.475 77.023,74.475 C75.904,74.475 74.83,74.033 74.035,73.238 L73.48,72.683 C71.929,71.133 71.824,68.654 73.234,66.976 C80.048,58.872 83.802,48.58 83.802,37.994 C83.802,26.983 79.783,16.383 72.488,8.147 C71.009,6.475 71.084,3.944 72.658,2.364 L73.212,1.809 C74.034,0.983 75.102,0.528 76.327,0.567 C77.49,0.6 78.59,1.114 79.363,1.984 C88.181,11.912 93.038,24.702 93.038,37.994 C93.04,50.783 88.499,63.207 80.252,72.976 L80.252,72.976 Z" id="Shape"></path>
        </g>
    </g>
</svg>