<?xml version="1.0" encoding="utf-8"?>
<!-- Generator: Adobe Illustrator 16.0.0, SVG Export Plug-In . SVG Version: 6.00 Build 0)  -->
<!DOCTYPE svg PUBLIC "-//W3C//DTD SVG 1.1//EN" "http://www.w3.org/Graphics/SVG/1.1/DTD/svg11.dtd">
<svg version="1.1" id="Calque_1" xmlns="http://www.w3.org/2000/svg" xmlns:xlink="http://www.w3.org/1999/xlink" x="0px" y="0px"
	 width="227.273px" height="112.121px" viewBox="0 0 227.273 112.121" enable-background="new 0 0 227.273 112.121"
	 xml:space="preserve">
<path fill="none" stroke="#31AC67" stroke-width="3" stroke-linecap="round" stroke-miterlimit="10" d="M16.636,80.561
	c0,0,3.863-50.27,8.207-31.141c4.347,19.128,3.538,64.576,10.621,12.9C44.386-2.778,47.97,31.18,47.97,31.18
	s5.942,50.713,7.873,53.827c1.933,3.114,2.896,5.338,6.76-41.816C66.466-3.963,74.19,18.725,75.155,54.758
	c0.966,36.033,5.481,38.258,11.481,12.012"/>
<g enable-background="new    ">
	<path fill="#31AC67" d="M101.357,59.619c1.486,0.72,2.735,1.684,3.749,2.892c1.012,1.209,1.78,2.621,2.303,4.238
		c0.522,1.617,0.784,3.341,0.784,5.17s-0.262,3.552-0.784,5.169c-0.523,1.617-1.291,3.03-2.303,4.238
		c-1.013,1.209-2.263,2.165-3.749,2.867c-1.487,0.702-3.193,1.053-5.121,1.053c-1.928,0-3.634-0.351-5.121-1.053
		c-1.487-0.702-2.736-1.658-3.749-2.867c-1.013-1.208-1.781-2.621-2.303-4.238c-0.523-1.617-0.784-3.34-0.784-5.169
		s0.261-3.553,0.784-5.17c0.522-1.617,1.29-3.029,2.303-4.238c1.012-1.208,2.262-2.172,3.749-2.892
		c1.486-0.718,3.193-1.077,5.121-1.077C98.164,58.542,99.87,58.901,101.357,59.619z M92.365,62.069
		c-1.111,0.621-2.034,1.438-2.769,2.45c-0.735,1.013-1.291,2.164-1.666,3.454c-0.376,1.291-0.563,2.605-0.563,3.945
		s0.188,2.654,0.563,3.944c0.375,1.291,0.931,2.442,1.666,3.454c0.735,1.013,1.658,1.83,2.769,2.45
		c1.11,0.621,2.401,0.931,3.871,0.931c1.47,0,2.76-0.31,3.871-0.931c1.11-0.62,2.033-1.438,2.769-2.45
		c0.735-1.012,1.29-2.163,1.666-3.454c0.375-1.29,0.563-2.604,0.563-3.944s-0.188-2.654-0.563-3.945
		c-0.376-1.29-0.931-2.441-1.666-3.454c-0.735-1.012-1.659-1.829-2.769-2.45c-1.111-0.62-2.401-0.931-3.871-0.931
		C94.766,61.139,93.476,61.449,92.365,62.069z"/>
	<path fill="#31AC67" d="M126.641,59.619c1.485,0.72,2.735,1.684,3.749,2.892c1.012,1.209,1.779,2.621,2.303,4.238
		c0.521,1.617,0.783,3.341,0.783,5.17s-0.262,3.552-0.783,5.169c-0.523,1.617-1.291,3.03-2.303,4.238
		c-1.014,1.209-2.264,2.165-3.749,2.867c-1.487,0.702-3.193,1.053-5.12,1.053c-1.928,0-3.635-0.351-5.121-1.053
		s-2.736-1.658-3.749-2.867c-1.013-1.208-1.781-2.621-2.303-4.238c-0.523-1.617-0.784-3.34-0.784-5.169s0.261-3.553,0.784-5.17
		c0.522-1.617,1.29-3.029,2.303-4.238c1.012-1.208,2.262-2.172,3.749-2.892c1.486-0.718,3.193-1.077,5.121-1.077
		C123.448,58.542,125.154,58.901,126.641,59.619z M117.65,62.069c-1.111,0.621-2.034,1.438-2.77,2.45
		c-0.734,1.013-1.29,2.164-1.666,3.454c-0.376,1.291-0.563,2.605-0.563,3.945s0.188,2.654,0.563,3.944
		c0.375,1.291,0.931,2.442,1.666,3.454c0.735,1.013,1.658,1.83,2.77,2.45c1.109,0.621,2.4,0.931,3.871,0.931
		c1.469,0,2.76-0.31,3.871-0.931c1.109-0.62,2.033-1.438,2.768-2.45c0.735-1.012,1.291-2.163,1.666-3.454
		c0.375-1.29,0.564-2.604,0.564-3.944s-0.189-2.654-0.564-3.945c-0.375-1.29-0.931-2.441-1.666-3.454
		c-0.734-1.012-1.658-1.829-2.768-2.45c-1.111-0.62-2.402-0.931-3.871-0.931C120.051,61.139,118.76,61.449,117.65,62.069z"/>
</g>
<g enable-background="new    ">
	<path fill="#FFFFFF" d="M145.041,84.561h-2.303l-10.144-25.186h2.156l9.114,23.029h0.098l8.525-23.029h2.059L145.041,84.561z"/>
	<path fill="#FFFFFF" d="M157.633,54.621v-5.047h1.862v5.047H157.633z M157.633,84.561V59.375h1.862v25.186H157.633z"/>
	<path fill="#FFFFFF" d="M165.424,59.375h1.862v5.39h0.099c0.326-0.947,0.791-1.789,1.396-2.523
		c0.604-0.735,1.306-1.363,2.106-1.887c0.8-0.522,1.674-0.914,2.622-1.176c0.946-0.262,1.91-0.393,2.891-0.393
		c1.47,0,2.719,0.181,3.748,0.539c1.029,0.36,1.87,0.833,2.523,1.421c0.653,0.589,1.168,1.25,1.544,1.985
		c0.375,0.734,0.645,1.478,0.809,2.229c0.163,0.751,0.261,1.479,0.294,2.18c0.031,0.703,0.049,1.315,0.049,1.838v15.582h-1.861
		V68.636c0-0.62-0.05-1.404-0.147-2.353c-0.099-0.946-0.385-1.854-0.858-2.719c-0.473-0.865-1.192-1.609-2.155-2.229
		c-0.964-0.62-2.296-0.932-3.993-0.932c-1.438,0-2.713,0.262-3.822,0.784c-1.111,0.523-2.059,1.25-2.842,2.181
		c-0.784,0.931-1.381,2.042-1.789,3.332c-0.408,1.291-0.612,2.703-0.612,4.238v13.622h-1.862V59.375z"/>
	<path fill="#FFFFFF" d="M211.631,59.375v23.862c0,1.404-0.163,2.769-0.489,4.092s-0.888,2.49-1.687,3.504
		c-0.799,1.012-1.898,1.82-3.3,2.425s-3.178,0.906-5.328,0.906c-1.336,0-2.591-0.139-3.764-0.416
		c-1.173-0.278-2.2-0.719-3.079-1.323c-0.881-0.604-1.59-1.404-2.127-2.4c-0.538-0.997-0.84-2.229-0.904-3.7h1.861
		c0.098,1.11,0.375,2.059,0.834,2.843c0.457,0.783,1.053,1.428,1.788,1.935s1.56,0.874,2.474,1.103
		c0.915,0.229,1.895,0.344,2.941,0.344c1.73,0,3.176-0.262,4.336-0.784c1.159-0.523,2.082-1.2,2.769-2.033
		c0.686-0.833,1.167-1.781,1.445-2.843c0.277-1.062,0.417-2.131,0.417-3.209v-5.782h-0.143c-0.881,1.862-2.078,3.283-3.594,4.263
		c-1.517,0.98-3.35,1.471-5.5,1.471c-1.857,0-3.463-0.318-4.816-0.956c-1.354-0.637-2.478-1.519-3.373-2.646
		c-0.896-1.127-1.565-2.441-2.005-3.944c-0.44-1.503-0.659-3.137-0.659-4.9c0-1.666,0.236-3.25,0.71-4.753
		c0.474-1.502,1.167-2.817,2.083-3.944c0.914-1.127,2.049-2.025,3.404-2.695c1.355-0.669,2.916-1.005,4.68-1.005
		c1.992,0,3.83,0.507,5.513,1.52s2.883,2.45,3.602,4.312h0.099v-5.242H211.631z M200.605,60.403c-1.535,0-2.866,0.312-3.993,0.932
		s-2.058,1.438-2.793,2.449c-0.735,1.014-1.291,2.165-1.666,3.455c-0.376,1.291-0.563,2.605-0.563,3.944
		c0,1.47,0.188,2.866,0.563,4.189c0.375,1.323,0.947,2.475,1.715,3.454c0.767,0.98,1.716,1.757,2.843,2.328s2.425,0.857,3.895,0.857
		c1.535,0,2.875-0.294,4.019-0.882s2.099-1.389,2.866-2.401c0.768-1.012,1.34-2.164,1.715-3.454s0.564-2.654,0.564-4.092
		c0-1.404-0.189-2.76-0.564-4.067c-0.375-1.306-0.947-2.457-1.715-3.454c-0.768-0.996-1.723-1.788-2.866-2.377
		C203.48,60.697,202.14,60.403,200.605,60.403z"/>
</g>
</svg>
